# xmcd
#
# Track frame offsets:
#	150
#	20430
#	34947
#	56222
#	77112
#	94910
#	111787
#	133117
#	152282
#	172905
#	191860
#	218730
#	242880
#	269350
#	289797
#	308244
#	330280
#
# Disc length: 4673 seconds
#
# Revision: 1
# Processed by: cddbd v1.5.1PL0 Copyright (c) Steve Scherf et al.
# Submitted via: audiograbber 1.81.02
#
DISCID=ee123f11
DTITLE=Various Artist - Playback-CD Premium Collection aus "In Love With Jesus" Band 1
DTITLE=Various Artist -  CD 2 - (www.gerth.de)
DYEAR=2005
DGENRE=Chorus
TTITLE0=Er macht wirklich frei
TTITLE1=Der Strom Gottes fließt
TTITLE2=Komm, jetzt ist die Zeit, wir beten an
TTITLE3=Vater, ich komme jetzt zu dir
TTITLE4=Herr, ich lieb dich so sehr
TTITLE5=Entfach dein Feuer in mir
TTITLE6=Tief in mir brennt ein Feuer
TTITLE7=Gnadenthron
TTITLE8=Feuer des Herrn
TTITLE9=Führe mich zum Kreuz
TTITLE10=Hungrig komm ich zu dir
TTITLE11=Voll Sehnsucht
TTITLE12=Auge im Sturm
TTITLE13=Deine Gegenwart erfüllt mein Herz
TTITLE14=Ich hab einen Freund
TTITLE15=Von ganzem Herzen
TTITLE16=Ich empfang
EXTD=
EXTT0=
EXTT1=
EXTT2=
EXTT3=
EXTT4=
EXTT5=
EXTT6=
EXTT7=
EXTT8=
EXTT9=
EXTT10=
EXTT11=
EXTT12=
EXTT13=
EXTT14=
EXTT15=
EXTT16=
PLAYORDER=
